<?xml version="1.0" standalone="no"?>
<!DOCTYPE svg PUBLIC "-//W3C//DTD SVG 20010904//EN"
 "http://www.w3.org/TR/2001/REC-SVG-20010904/DTD/svg10.dtd">
<svg version="1.0" xmlns="http://www.w3.org/2000/svg"
 width="800.000000pt" height="800.000000pt" viewBox="0 0 800.000000 800.000000"
 preserveAspectRatio="xMidYMid meet">
<metadata>
Created by potrace 1.14, written by Peter Selinger 2001-2017
</metadata>
<g transform="translate(0.000000,800.000000) scale(0.100000,-0.100000)"
fill="#000000" stroke="none">
<path d="M2028 6385 c-2 -2 -39 -6 -83 -9 -44 -4 -91 -9 -105 -11 -14 -2 -50
-7 -81 -10 -31 -3 -67 -8 -80 -10 -12 -3 -45 -7 -73 -10 -28 -2 -62 -7 -76
-10 -14 -3 -45 -7 -70 -10 -25 -3 -56 -7 -70 -10 -13 -2 -42 -7 -65 -10 -22
-4 -92 -16 -155 -27 -63 -11 -126 -22 -138 -24 -13 -1 -45 -7 -70 -13 -40 -9
-202 -40 -282 -55 -14 -2 -36 -7 -50 -10 -14 -3 -36 -8 -50 -10 -14 -3 -34 -7
-45 -9 -16 -4 -155 -33 -290 -61 -155 -33 -228 -52 -231 -61 -3 -6 23 -69 56
-141 98 -208 141 -307 235 -534 26 -63 53 -126 60 -140 7 -14 13 -29 13 -33 1
-7 41 -114 117 -312 62 -160 241 -723 258 -811 2 -11 7 -26 10 -34 7 -17 67
-265 72 -295 2 -11 6 -29 8 -40 8 -29 48 -233 53 -269 2 -17 6 -43 8 -57 2
-14 9 -59 15 -100 25 -168 28 -465 6 -634 -2 -22 -7 -60 -10 -85 -19 -159 -84
-435 -151 -642 -36 -110 -95 -273 -114 -313 -5 -11 -25 -58 -44 -105 -19 -47
-50 -119 -69 -160 -19 -41 -45 -97 -57 -125 -24 -54 -236 -478 -294 -589 -20
-38 -36 -71 -36 -74 0 -2 37 31 83 74 46 44 110 97 143 119 32 22 61 43 62 48
2 4 8 7 12 7 5 0 33 14 62 31 77 46 210 111 312 153 85 36 307 112 351 121 11
2 45 11 77 19 59 16 96 24 138 31 14 2 55 8 92 14 332 54 519 25 843 -130 50
-23 92 -43 95 -44 3 -1 43 -20 90 -42 47 -22 102 -48 123 -58 61 -27 205 -75
240 -80 17 -2 43 -7 57 -11 14 -4 104 -8 200 -10 177 -2 252 6 383 42 32 8 66
17 75 19 40 9 318 109 388 140 155 70 338 98 524 80 36 -3 72 -6 80 -7 47 -2
232 -55 305 -87 11 -5 43 -19 70 -31 28 -12 59 -26 70 -31 102 -45 340 -115
425 -125 25 -3 56 -7 70 -10 14 -2 75 -7 135 -10 109 -6 111 -6 170 26 72 38
121 44 182 24 40 -14 139 -68 153 -84 3 -3 46 -34 97 -68 93 -63 148 -89 213
-100 78 -13 283 -6 363 13 12 3 36 7 52 10 28 3 114 24 198 46 34 9 37 13 32
37 -10 49 -7 159 5 203 7 24 25 69 40 100 34 67 67 161 87 244 7 33 16 69 18
80 3 11 7 30 9 43 3 13 7 31 10 40 3 9 7 33 10 52 3 19 15 80 26 135 12 55 23
109 24 120 10 69 49 186 121 365 95 238 144 392 170 535 18 98 26 151 31 196
2 30 7 70 10 89 13 82 16 372 10 959 -2 250 6 311 69 551 3 8 9 33 15 55 6 22
13 47 15 55 2 8 15 56 29 105 13 50 27 97 30 105 3 8 8 26 10 40 3 14 16 67
30 118 30 108 78 312 91 382 25 143 35 320 18 320 -5 0 -32 -7 -61 -14 -29 -8
-53 -14 -55 -14 -3 0 -100 -14 -122 -18 -33 -6 -157 -6 -215 1 -76 8 -128 27
-250 92 -113 61 -129 72 -260 176 -47 38 -107 81 -135 97 -51 29 -184 74 -193
65 -2 -2 -12 0 -21 4 -55 30 -409 33 -572 6 -138 -23 -275 -48 -324 -60 -33
-8 -71 -17 -85 -19 -14 -3 -54 -12 -90 -21 -36 -9 -73 -18 -83 -20 -10 -2 -26
-6 -35 -9 -9 -3 -28 -8 -42 -11 -14 -3 -112 -25 -219 -50 -106 -25 -210 -47
-230 -50 -20 -3 -47 -7 -61 -10 -14 -3 -47 -8 -75 -11 -27 -3 -77 -9 -110 -14
-59 -7 -306 -5 -355 3 -14 3 -47 8 -75 12 -27 3 -58 9 -67 11 -10 3 -30 8 -45
10 -126 23 -418 126 -620 220 -41 18 -76 34 -77 34 -2 0 -55 24 -117 54 -63
30 -170 79 -239 109 -106 47 -169 72 -335 137 -69 26 -290 87 -350 95 -16 3
-41 7 -55 9 -81 14 -139 18 -257 20 -73 2 -134 2 -135 1z"/>
</g>
</svg>
